<svg id="Layer_1" data-name="Layer 1" xmlns="http://www.w3.org/2000/svg" viewBox="0 0 280 300"><defs><style>.cls-1{fill:#fff;}.cls-2{fill:#231f1f;}.cls-3{fill:#f8a420;}.cls-4{fill:#422a1b;}.cls-5{fill:#614c45;}</style></defs><title>scratchcat logo</title><path class="cls-1" d="M81,118.57a58.77,58.77,0,0,1,10.14,4.07,55.81,55.81,0,0,1,9.59,5.84l.85-1.07a57.2,57.2,0,0,0-9.84-6,60,60,0,0,0-10.4-4.16L81,118.57"/><path class="cls-1" d="M81.93,134.83c.27,0,6.73.85,9.78.8l9-.64-.13-1.36-8.91.63a95.26,95.26,0,0,1-9.57-.79l-.18,1.36"/><path class="cls-1" d="M208.59,126.66a90.29,90.29,0,0,1-11.12,2.08l.18,1.35A87.21,87.21,0,0,0,209,128a25,25,0,0,0,7.75-4l-.86-1.06a24.39,24.39,0,0,1-7.29,3.75"/><path class="cls-1" d="M197.67,139.73a38.48,38.48,0,0,0,9.09,2.63,45.56,45.56,0,0,0,7.67.45l-.08-1.37a44.65,44.65,0,0,1-7.41-.44,36.8,36.8,0,0,1-8.7-2.52l-.57,1.25"/><path class="cls-1" d="M206.47,133.21c-1.11-6.13-5.7-10.14-9.35-12.41a32,32,0,0,0-3.74-2,41.77,41.77,0,0,0-5-15.84c-2.71-5-10.66-11.76-13-13.71l-4.62-22.08-.17.15s-.06-.3-.06-.3-14.24,12.81-15.1,13.57L149.05,82a62.73,62.73,0,0,0-7.51-.42,66.55,66.55,0,0,0-14.75,2.08L107.4,70.17l-.2-.13-4.1-2.89L106,102.06c-2.49,3.25-10.33,14.46-10.33,27.14a27.52,27.52,0,0,0,3.64,13.85,46,46,0,0,0,14.45,15.4c-3.36,1-6.2,3.38-9.15,5.83l-3,2.43c-.7.55-1.52,1-2.37,1.59-2.65,1.63-6.14,3.8-6.14,8.24a10.28,10.28,0,0,0,.31,2.41,45.78,45.78,0,0,0,1.79,5.66,19.84,19.84,0,0,1-6.61-4.22c-3.19-3.09-5.52-7-7.56-10.45a34.07,34.07,0,0,0-4.8-6.89c-2.92-2.85-5.74-2.35-7.6-1.43-3.29,1.63-5.32,6.13-5.32,11.67,0,.4,0,.8,0,1.2.41,8.08,5.35,18.38,17.93,23.07a43.27,43.27,0,0,0,9.16,2.3c-1.45.49-2.72.88-3.53,1.11a9.85,9.85,0,0,0-9.82.24c-3.57,2.14-3.93,7.25-1,14,3.53,8.16,12.28,19.24,19.82,17.1,3.43-1,5.64-2.72,6.57-5.23a7.58,7.58,0,0,0,.48-2.72c0-3.12-1.64-6.25-3.08-8.58,10.38-3,20.59-8.92,24.35-11.22,2.61,2.54,5.17,5.12,7.6,7.69,7.54,8,18.63,17.68,19.1,18.09l.51.44.67.1c.45.06,11.06,1.68,20.1,2,9.57.38,13.57-.68,14.3-3.8.89-3.74.35-6.93-1.57-9.46-2.73-3.57-8-5.54-15.77-5.85a59.5,59.5,0,0,0-7.71.23c-4.47-4.1-7.93-7.31-9.77-9.05-2.11-2-5.45-5.4-9.93-10.13a44.24,44.24,0,0,0,5.4-6.45c.43-.58.88-1.28,1.35-2.07a37.61,37.61,0,0,1,5,4.71c3,3.17,6,4.68,9.25,4.62,2.74-.05,5.24-1.18,7.67-2.28l.2-.11c3.05-1.39,13-6.4,14.14-12.82a7.17,7.17,0,0,0-2.34-6.54,9.56,9.56,0,0,0-5.81-3c-3.19-.29-5.8,1.58-8.12,3.24a16.58,16.58,0,0,1-4.36,2.56,4.44,4.44,0,0,1-1.29.21c-1.85,0-3.19-1.68-5-4.24a26,26,0,0,0-2.11-2.7c-.39-.43-.8-.82-1.19-1.21a103.27,103.27,0,0,0,13.2-1.25c20.24-3.27,29.87-11.55,34.39-17.91a23.72,23.72,0,0,0,4.67-13.47,16.8,16.8,0,0,0-.25-2.93"/><path class="cls-2" d="M206.47,133.21c-1.11-6.13-5.7-10.14-9.35-12.41a32,32,0,0,0-3.74-2,41.77,41.77,0,0,0-5-15.84c-2.71-5-10.66-11.76-13-13.71l-4.62-22.08-.17.15s-.06-.3-.06-.3-14.24,12.81-15.1,13.57L149.05,82a62.73,62.73,0,0,0-7.51-.42,66.55,66.55,0,0,0-14.75,2.08L107.4,70.17l-.2-.13-4.1-2.89L106,102.06c-2.49,3.25-10.33,14.46-10.33,27.14a27.52,27.52,0,0,0,3.64,13.85,46,46,0,0,0,14.45,15.4c-3.36,1-6.2,3.38-9.15,5.83l-3,2.43c-.7.55-1.52,1-2.37,1.59-2.65,1.63-6.14,3.8-6.14,8.24a10.28,10.28,0,0,0,.31,2.41,45.78,45.78,0,0,0,1.79,5.66,19.84,19.84,0,0,1-6.61-4.22c-3.19-3.09-5.52-7-7.56-10.45a34.07,34.07,0,0,0-4.8-6.89c-2.92-2.85-5.74-2.35-7.6-1.43-3.29,1.63-5.32,6.13-5.32,11.67,0,.4,0,.8,0,1.2.41,8.08,5.35,18.38,17.93,23.07a43.27,43.27,0,0,0,9.16,2.3c-1.45.49-2.72.88-3.53,1.11a9.85,9.85,0,0,0-9.82.24c-3.57,2.14-3.93,7.25-1,14,3.53,8.16,12.28,19.24,19.82,17.1,3.43-1,5.64-2.72,6.57-5.23a7.58,7.58,0,0,0,.48-2.72c0-3.12-1.64-6.25-3.08-8.58,10.38-3,20.59-8.92,24.35-11.22,2.61,2.54,5.17,5.12,7.6,7.69,7.54,8,18.63,17.68,19.1,18.09l.51.44.67.1c.45.06,11.06,1.68,20.1,2,9.57.38,13.57-.68,14.3-3.8.89-3.74.35-6.93-1.57-9.46-2.73-3.57-8-5.54-15.77-5.85a59.5,59.5,0,0,0-7.71.23c-4.47-4.1-7.93-7.31-9.77-9.05-2.11-2-5.45-5.4-9.93-10.13a44.24,44.24,0,0,0,5.4-6.45c.43-.58.88-1.28,1.35-2.07a37.61,37.61,0,0,1,5,4.71c3,3.17,6,4.68,9.25,4.62,2.74-.05,5.24-1.18,7.67-2.28l.2-.11c3.05-1.39,13-6.4,14.14-12.82a7.17,7.17,0,0,0-2.34-6.54,9.56,9.56,0,0,0-5.81-3c-3.19-.29-5.8,1.58-8.12,3.24a16.58,16.58,0,0,1-4.36,2.56,4.44,4.44,0,0,1-1.29.21c-1.85,0-3.19-1.68-5-4.24a26,26,0,0,0-2.11-2.7c-.39-.43-.8-.82-1.19-1.21a103.27,103.27,0,0,0,13.2-1.25c20.24-3.27,29.87-11.55,34.39-17.91a23.72,23.72,0,0,0,4.67-13.47,16.8,16.8,0,0,0-.25-2.93"/><path class="cls-3" d="M167.29,165.2c30.66-4.94,38.55-22.23,36.87-31.57s-13-13.19-13-13.19.12-7.27-4.82-16.38c-2.92-5.41-13.07-13.54-13.07-13.54l-4-18.92L156.75,82.87l-7,1.58a58.22,58.22,0,0,0-8.17-.53,65.19,65.19,0,0,0-15.22,2.28L106.06,72.09l2.51,30.83c1.11-1.24-17.87,20.17-7.06,39.11,5.07,8.89,13.14,15.6,23.4,19.73l-.75.63a9.65,9.65,0,0,0-2.17-1.18c-8.07-3.22-12.28,2.16-19,7.35-3.62,2.8-8.77,4.07-7.38,9.83a42.62,42.62,0,0,0,3.71,9.69l-.2.11a24,24,0,0,1-12.26-6.11C78.33,173.8,76,160.56,69.6,163.71s-7,24.41,12.44,31.65c6.69,2.51,12.89,2.74,17.91,2.79V198l4.17-1.95c-1.08.67-2.72,1.61-5,2.74L93.38,201l-.18.4c-3.4,1.27-6.69,2.15-6.69,2.15a7.72,7.72,0,0,0-8.28-.28c-7.14,4.29,8.21,29.32,17,26.85,10.6-3,2.41-13.14.89-15.73,13.53-3.09,28.28-12.66,28.28-12.66l-.23.09.35-.18c2.62,2.52,5.71,5.59,9,9.07,7.56,8,18.92,17.91,18.92,17.91s30.67,4.67,31.76,0c3.69-15.77-23.58-12.07-23.58-12.07s-7.25-6.65-10.58-9.81c-3-2.8-7.83-7.89-11.68-12l.31-.36c1.94-1.42,4-3.73,6.56-7.32a34.22,34.22,0,0,0,2.53-4.29v.46s2,.34,7.48,6.24,9.67,3.87,14.43,1.7,17.45-9.32,11.1-15.55-10.15,1.49-15.91,3.33-8.06-4.33-10.88-7.36a27.94,27.94,0,0,0-5.63-4.64l.07-.5a97.3,97.3,0,0,0,18.92-1.24"/><path class="cls-1" d="M70.26,163.8c-3.9.72-5.66,8.06-4.21,13.91s3.22,9.75,6,11.92-.51-5,3-7.74,9.56-1.18,9.56-1.18-4.58-6.77-7.19-10.86-3.48-6.75-7.23-6"/><path class="cls-1" d="M146.44,184.94s4.17-4.17-3.69-8.77-11.71-.46-14.28,2C124,182.27,133.29,190,133.29,190l5.17,4.21a22.37,22.37,0,0,0,4.41-4.49,52.63,52.63,0,0,1,3.57-4.81"/><path class="cls-1" d="M132.61,127.88s-13.75,1-14.54,9.35c-2,20.92,32.6,29.28,32.6,29.28s16.32,1.2,31.38-6S206,144.38,204,133.84s-14.89-13.18-14.89-13.18l-3.25-4.13-14.95,3.78s-.2,5.56-7.35,6.84-18.06-4.36-18.06-4.36l-12.84,5.09"/><path class="cls-4" d="M156.65,82.85l12.29-11,3.91,18.68.05,0,.44.36c1,.81,3.5,2.92,6.09,5.41s5.24,5.38,6.5,7.72c4.68,8.62,4.79,15.6,4.79,16.24v.18l.12,0,.13,0a27.06,27.06,0,0,1,6.29,3.43c2.86,2.12,5.74,5.26,6.52,9.58A14.58,14.58,0,0,1,204,136c0,4.77-2.22,10.87-8,16.34s-15,10.32-29,12.59a99.84,99.84,0,0,1-15.89,1.32c-23,0-40.87-8.93-49.7-24.4a25.18,25.18,0,0,1-3.32-12.69c0-7,2.6-13.56,5.21-18.38a55.68,55.68,0,0,1,3.58-5.76c.49-.68.89-1.22,1.18-1.58l.33-.42.08-.1,0,0h0v0a.24.24,0,0,0,0-.07.17.17,0,0,0-.07-.15l-.1,0a.13.13,0,0,0-.08,0l0,0,0,0,0,0,.13.12.18,0-2.49-30.44,23.54,16.61.21-.29-24.16-17,2.58,31.6.27-.3,0,0h0l-.06-.06.06.06h0l-.06-.06.06.06-.11-.11.1.12h0l-.11-.11.1.12-.11-.13.1.14h0l-.11-.13.1.14-.1-.14.07.16,0,0-.1-.14.07.16-.07-.16v.17h.07l-.07-.16v0l-.1.14a.16.16,0,0,0,.1,0v-.17l-.1.14.1-.14h-.18a.17.17,0,0,0,.08.14l.1-.14h0l-.16-.07s0,0,0,.07h.18l-.16-.07.16.07-.15-.1v0l.16.07-.15-.1h0c-.09.12-.8,1-1.8,2.39-3,4.26-8.68,13.68-8.68,24.1A25.47,25.47,0,0,0,101.15,142c8.9,15.61,26.9,24.58,50,24.58a100.66,100.66,0,0,0,15.95-1.32c14.09-2.28,23.4-7.15,29.18-12.68s8.06-11.72,8.06-16.6a14.27,14.27,0,0,0-.22-2.5c-.85-4.74-4.15-8.07-7.23-10.21a25.69,25.69,0,0,0-5.94-3.11l0,.16h.17v-.06c0-.68-.11-7.72-4.83-16.41-1.49-2.75-4.76-6.13-7.67-8.85s-5.45-4.74-5.45-4.74l-.11.13.17,0-4-19.22L156.41,82.59l.24.26Z"/><path class="cls-4" d="M158.47,85.85a69.42,69.42,0,0,0-16.59-2.24h-.54a64.91,64.91,0,0,0-15.26,2.28l.1.34.33-.1A65,65,0,0,1,141.35,84h.53a66.09,66.09,0,0,1,11.46,1.11c1.53.28,2.79.56,3.67.77l1,.25.36.1.09-.34Z"/><path class="cls-1" d="M143.42,107.87c4.48,7.44,3.67,16.16-1.81,19.47s-13.57,0-18.05-7.5-3.68-16.16,1.8-19.46,13.57.05,18.06,7.49"/><path class="cls-4" d="M143.42,107.87l-.61.37a18.73,18.73,0,0,1,2.79,9.51,12.3,12.3,0,0,1-1.12,5.33,8.45,8.45,0,0,1-3.24,3.65h0a8.35,8.35,0,0,1-4.35,1.17,12.79,12.79,0,0,1-6.82-2.21,19.11,19.11,0,0,1-5.9-6.22h0a18.57,18.57,0,0,1-2.81-9.51,12.45,12.45,0,0,1,1.12-5.33,8.44,8.44,0,0,1,3.25-3.64,8.24,8.24,0,0,1,4.36-1.17,12.77,12.77,0,0,1,6.81,2.2,19.23,19.23,0,0,1,5.91,6.22l.61-.37.61-.36a20.53,20.53,0,0,0-6.36-6.68,14.17,14.17,0,0,0-7.58-2.43A9.59,9.59,0,0,0,121.2,104a13.78,13.78,0,0,0-1.26,5.94,20,20,0,0,0,3,10.25h0a20.48,20.48,0,0,0,6.35,6.67,14.11,14.11,0,0,0,7.59,2.44,9.7,9.7,0,0,0,5.08-1.38h0a9.81,9.81,0,0,0,3.79-4.25,13.74,13.74,0,0,0,1.26-5.94,20,20,0,0,0-3-10.24Z"/><path class="cls-1" d="M182.52,104c4.48,7.44,4.36,15.75-.28,18.54s-12-1-16.52-8.41-4.37-15.75.28-18.55,12,1,16.52,8.42"/><path class="cls-4" d="M182.52,104l-.61.37a20.81,20.81,0,0,1,3.18,10.42,10.62,10.62,0,0,1-.83,4.35,6.06,6.06,0,0,1-2.38,2.79,5.91,5.91,0,0,1-3.11.83,11.56,11.56,0,0,1-6.43-2.38,22.07,22.07,0,0,1-6-6.62,20.79,20.79,0,0,1-3.19-10.43A10.7,10.7,0,0,1,164,99a6,6,0,0,1,2.4-2.8,5.88,5.88,0,0,1,3.09-.82,11.55,11.55,0,0,1,6.44,2.37,22,22,0,0,1,6,6.63l.61-.37-.5-.5h0l-.4.39.29.48.61-.37.5.5h0l.39-.39-.28-.47a23.45,23.45,0,0,0-6.41-7.06A12.94,12.94,0,0,0,169.46,94a7.43,7.43,0,0,0-3.83,1,7.51,7.51,0,0,0-2.95,3.44,11.9,11.9,0,0,0-1,4.92,22.12,22.12,0,0,0,3.4,11.16,23.51,23.51,0,0,0,6.4,7.05,13,13,0,0,0,7.25,2.64,7.35,7.35,0,0,0,3.84-1,7.51,7.51,0,0,0,2.95-3.44,12.06,12.06,0,0,0,.95-4.92,22.12,22.12,0,0,0-3.38-11.15l-.61.36.5.5Z"/><path class="cls-2" d="M138.61,118.37a2.25,2.25,0,1,1-2.15-2.51,2.35,2.35,0,0,1,2.15,2.51"/><path class="cls-2" d="M179.87,114.58a2.26,2.26,0,1,1-2.16-2.52,2.36,2.36,0,0,1,2.16,2.52"/><path class="cls-5" d="M162.18,123.68c3,.11,7.43-.19,7.6,1.19s-3,6.73-5.11,6.89-9.8-4.18-9.82-6.73,4.56-1.45,7.33-1.35"/><path class="cls-4" d="M162.18,123.68v.14c1.52.05,3.38,0,4.87.12a7.71,7.71,0,0,1,1.86.31,1.93,1.93,0,0,1,.54.28.6.6,0,0,1,.2.36h0s0,.07,0,.11a4.8,4.8,0,0,1-.5,1.63,15.42,15.42,0,0,1-2.08,3.24,7.62,7.62,0,0,1-1.26,1.23,2.27,2.27,0,0,1-1.15.52h-.1a7,7,0,0,1-2.41-.68,23.54,23.54,0,0,1-4.73-2.79,10.42,10.42,0,0,1-1.75-1.65A2.62,2.62,0,0,1,155,125v0a1.5,1.5,0,0,1,.2-.74,1.63,1.63,0,0,1,1-.6,6,6,0,0,1,1.56-.17c1.43,0,3.15.27,4.47.32h.06l.05,0-.1-.09v0l-.1-.1h0l.1.1v-.14c-1.29-.05-3-.32-4.48-.32a4.85,4.85,0,0,0-2.08.35,1.47,1.47,0,0,0-.91,1.44v0a3.57,3.57,0,0,0,1.25,2.2,19.46,19.46,0,0,0,4.48,3.18,18.77,18.77,0,0,0,2.35,1.07,5.6,5.6,0,0,0,1.77.41h.12a3.24,3.24,0,0,0,1.74-.94,13.47,13.47,0,0,0,2.4-3.11,13.31,13.31,0,0,0,.8-1.61,3.72,3.72,0,0,0,.3-1.24v-.14h0a.87.87,0,0,0-.3-.53,2.81,2.81,0,0,0-1.27-.51,49.52,49.52,0,0,0-6.17-.28h-.06l0,0Z"/><path class="cls-4" d="M101.64,127.4a56.65,56.65,0,0,0-9.85-6h0a59.37,59.37,0,0,0-10.41-4.16L81,118.59h0a58.27,58.27,0,0,1,10.12,4.06h0a62.53,62.53,0,0,1,7,4c.83.56,1.48,1,1.91,1.34l.5.38.12.09,0,0h0l.89-1.1Z"/><path class="cls-4" d="M81.92,134.86s1.57.2,3.53.4,4.31.4,5.94.4h.32c1.55,0,3.8-.19,5.66-.34s3.35-.3,3.35-.3l-.13-1.41-.26,0c-.59.05-2.09.19-3.78.32s-3.57.26-4.87.28h-.29c-1.52,0-3.86-.2-5.8-.4-1-.09-1.84-.19-2.47-.27l-.75-.09-.27,0-.18,1.41Z"/><path class="cls-4" d="M111.64,180.12l.2-.15c.92-.65,4.8-3.4,8.33-5.82a22.51,22.51,0,0,0,4.19-3.71,11.86,11.86,0,0,0,1.59-2.35,5.94,5.94,0,0,0,.66-2.57,4.25,4.25,0,0,0-.25-1.45,5,5,0,0,0-1.42-2,9.57,9.57,0,0,0-2.71-1.56h0a12.88,12.88,0,0,0-4.88-1,10.67,10.67,0,0,0-4,.77,21.46,21.46,0,0,0-5.33,3.27c-1.73,1.36-3.5,2.91-5.46,4.43h0c-.76.59-1.62,1.12-2.48,1.66a18.42,18.42,0,0,0-3.65,2.67,6.31,6.31,0,0,0-1.28,1.85,5.94,5.94,0,0,0-.49,2.4,8,8,0,0,0,.26,2h0a41.93,41.93,0,0,0,4.5,11.12,19.15,19.15,0,0,0,4.45,5.23,11.3,11.3,0,0,0,2.87,1.66,9.42,9.42,0,0,0,3.33.61,11.25,11.25,0,0,0,4.36-.94,9.45,9.45,0,0,0,3.74-2.59,5.11,5.11,0,0,0,.89-1.58,4.9,4.9,0,0,0,.28-1.68,6.9,6.9,0,0,0-.35-2.1,14.06,14.06,0,0,0-1.86-3.52,43.23,43.23,0,0,0-3.94-4.67c-.64-.69-1.24-1.31-1.72-1.85a8.66,8.66,0,0,1-1-1.31l-1.23.72a8.17,8.17,0,0,0,.85,1.14c.61.71,1.4,1.54,2.26,2.46a39.83,39.83,0,0,1,3.8,4.55,13.74,13.74,0,0,1,1.31,2.37,6,6,0,0,1,.48,2.21,3.53,3.53,0,0,1-.2,1.21,4.07,4.07,0,0,1-1.19,1.72,9,9,0,0,1-2.66,1.61,9.69,9.69,0,0,1-3.8.83,7.76,7.76,0,0,1-2.82-.52,11.29,11.29,0,0,1-4.2-3,26.69,26.69,0,0,1-4.49-7.32,44.29,44.29,0,0,1-2.27-6.68h0a7.44,7.44,0,0,1-.21-1.64,4.28,4.28,0,0,1,.64-2.33,6,6,0,0,1,1.19-1.37,19.56,19.56,0,0,1,2.59-1.82,33.69,33.69,0,0,0,2.93-1.94h0c2.67-2.07,4.93-4.15,7.14-5.68a15.9,15.9,0,0,1,3.3-1.82,9.71,9.71,0,0,1,3.48-.68,12,12,0,0,1,4.36.92h0a6.83,6.83,0,0,1,2.76,1.78,3.12,3.12,0,0,1,.56.92,2.85,2.85,0,0,1,.16,1,4.53,4.53,0,0,1-.51,1.94,12.27,12.27,0,0,1-2.32,3,22.16,22.16,0,0,1-3,2.47c-4.05,2.78-8.55,6-8.55,6l.82,1.16Z"/><path class="cls-4" d="M148,167l.13.07a28,28,0,0,1,5.65,4.64c1.22,1.31,2.35,3.23,3.73,4.84a9.88,9.88,0,0,0,2.3,2.05,5.5,5.5,0,0,0,2.94.85,6.61,6.61,0,0,0,2.06-.34,21.86,21.86,0,0,0,5.72-3.37c1.77-1.27,3.49-2.34,5.33-2.34,1.43,0,3,.63,4.72,2.35a5,5,0,0,1,1.7,3.56,6.39,6.39,0,0,1-1.44,3.7c-2.69,3.61-8.47,6.75-11.34,8.06-2.43,1.11-4.69,2.17-7,2.17s-4.56-1-7.23-3.83c-5.51-5.91-7.51-6.28-7.57-6.29l0,.27v0h0v0s2,.41,7.41,6.21c2.7,2.9,5.11,3.92,7.43,3.91s4.71-1.08,7.14-2.18a44.07,44.07,0,0,0,7.89-4.7,18.27,18.27,0,0,0,3.55-3.46,6.55,6.55,0,0,0,1.5-3.86,5.22,5.22,0,0,0-1.79-3.76c-1.78-1.75-3.39-2.43-4.91-2.43-2,0-3.71,1.13-5.49,2.39a21.68,21.68,0,0,1-5.65,3.34,6.39,6.39,0,0,1-2,.33,5.3,5.3,0,0,1-2.8-.81,12.53,12.53,0,0,1-3.21-3.24c-1-1.27-1.82-2.6-2.75-3.61a27.48,27.48,0,0,0-5.85-4.76L148,167Z"/><path class="cls-4" d="M149.71,178.09a2.15,2.15,0,0,1-.11.25c-.25.58-.91,2.07-1.75,3.75A38.87,38.87,0,0,1,145,187c-2.65,3.65-4.7,6-6.65,7.38l.2.28c2-1.43,4.07-3.8,6.73-7.45a41.71,41.71,0,0,0,3.2-5.62c.9-1.85,1.53-3.31,1.53-3.31l-.33-.14Z"/><path class="cls-4" d="M132.42,188.68s12,13,17.43,18.15c3.35,3.16,10.58,9.81,10.58,9.81l.06.05h.21a52,52,0,0,1,6.29-.36A32.25,32.25,0,0,1,178.32,218a10.68,10.68,0,0,1,4.29,2.89,7.35,7.35,0,0,1,1.69,4.89,12,12,0,0,1-.34,2.73,1.4,1.4,0,0,1-.77.87,8.72,8.72,0,0,1-3.06.82,38.15,38.15,0,0,1-4.69.25,143.84,143.84,0,0,1-15-1c-2.3-.26-4.29-.52-5.72-.72l-1.67-.23-.6-.09,0,.17.11-.13L152,228c-2.28-2-11.81-10.45-18.41-17.46a225.35,225.35,0,0,0-16.93-16.29l-.22.27.35.3c1.6,1.38,8.52,7.43,16.55,16,7.56,8,18.93,17.93,18.93,17.93l0,0h.05s13.65,2.08,23.08,2.08a31,31,0,0,0,6-.46,6.6,6.6,0,0,0,1.92-.66,1.73,1.73,0,0,0,.93-1.09,12.12,12.12,0,0,0,.35-2.81,7.7,7.7,0,0,0-1.77-5.11c-1.67-2-4.32-3.17-7.2-3.86A38.44,38.44,0,0,0,167,216a54.35,54.35,0,0,0-6.46.37l0,.18.12-.13s-.11-.11-.32-.29c-1.43-1.32-7.33-6.76-10.26-9.51-2.72-2.58-7.07-7.11-10.75-11-1.83-2-3.5-3.73-4.7-5L133.21,189l-.53-.57-.26.24Z"/><path class="cls-4" d="M95.7,213.8h0a.57.57,0,0,0,.06.24,12.52,12.52,0,0,0,.95,1.55,36.36,36.36,0,0,1,2.35,4,11.47,11.47,0,0,1,1.31,4.77,4.88,4.88,0,0,1-1.12,3.23,8.11,8.11,0,0,1-4.11,2.33,4.27,4.27,0,0,1-1.24.17,9.84,9.84,0,0,1-5.69-2.45,34.43,34.43,0,0,1-8.07-9.73c-2.19-3.79-3.63-7.75-3.63-10.66a5.88,5.88,0,0,1,.43-2.36,3.3,3.3,0,0,1,1.34-1.56h0a7.15,7.15,0,0,1,3.77-1.08,7.81,7.81,0,0,1,3.13.68,7.31,7.31,0,0,1,.91.47l.24.15.06,0h0l0,0,.07,0a77,77,0,0,0,9.9-3.47c7.12-3.26,9.61-5.27,9.62-5.27l-.18-.22,0,0c-.29.23-2.88,2.17-9.53,5.22a61,61,0,0,1-6.5,2.44c-1,.31-1.81.57-2.41.74l-.7.2-.26.07,0,.13.08-.11A8.37,8.37,0,0,0,82.05,202a7.49,7.49,0,0,0-3.91,1.12h0a3.59,3.59,0,0,0-1.46,1.69,6.12,6.12,0,0,0-.45,2.47,18.81,18.81,0,0,0,1.74,7,39.32,39.32,0,0,0,7.12,10.91c2.88,3.08,6,5.23,8.81,5.24a4.76,4.76,0,0,0,1.31-.18,8.36,8.36,0,0,0,4.25-2.42,5.15,5.15,0,0,0,1.19-3.41c0-2.31-1.18-4.78-2.36-6.77-.59-1-1.17-1.88-1.61-2.55-.22-.33-.4-.61-.52-.83a1.58,1.58,0,0,1-.15-.28.49.49,0,0,1,0-.13H95.7Z"/><path class="cls-4" d="M124.27,201.56l-.19.12c-1.9,1.21-17.54,10.94-30.8,13.06l0,.27c7.12-1.14,14.89-4.44,20.88-7.46a116.37,116.37,0,0,0,10.21-5.76l-.15-.23Z"/><path class="cls-4" d="M99.26,188.09A24,24,0,0,1,87,182h0c-3.82-3.7-6.4-8.39-8.67-12.18A31,31,0,0,0,75,165a4.94,4.94,0,0,0-3.58-1.94,4.37,4.37,0,0,0-1.92.49h0a6.73,6.73,0,0,0-3,3.58,16,16,0,0,0-1.11,6.13,22.77,22.77,0,0,0,3.7,12.27A25.51,25.51,0,0,0,82,195.49h0c6.73,2.52,12.94,2.75,18,2.79V198c-5,0-11.2-.28-17.87-2.78h0a25.19,25.19,0,0,1-12.7-9.81,22.5,22.5,0,0,1-3.65-12.12,15.79,15.79,0,0,1,1.09-6,6.45,6.45,0,0,1,2.83-3.44h0a4.06,4.06,0,0,1,1.8-.47,4.7,4.7,0,0,1,3.37,1.86c1.61,1.76,3.16,4.6,5,7.69a44.26,44.26,0,0,0,6.94,9.26h0a24.26,24.26,0,0,0,12.44,6.18l.05-.27Z"/><path class="cls-4" d="M197.65,130.12s1.87-.23,4.21-.62c1.17-.19,2.47-.41,3.71-.67s2.44-.54,3.43-.84a25.71,25.71,0,0,0,7.76-4l-.9-1.1h0a24.21,24.21,0,0,1-7.28,3.74c-.91.28-2.07.56-3.29.81-1.83.37-3.79.69-5.29.92l-1.83.26-.52.07-.18,0,.18,1.41Z"/><path class="cls-4" d="M197.67,139.75s1.12.5,2.8,1.08a35,35,0,0,0,6.29,1.55h0a49.68,49.68,0,0,0,6.63.48c.66,0,1,0,1,0l-.07-1.42h0c-.06,0-.4,0-1,0A49.63,49.63,0,0,1,207,141h0a33.68,33.68,0,0,1-6-1.5c-.81-.27-1.49-.53-2-.72l-.54-.23-.14-.06h0l-.58,1.3Z"/><path class="cls-4" d="M140.67,134.78l-.23.67s4.16,1.4,9.1,3c2.47.79,5.13,1.64,7.57,2.39s4.66,1.4,6.24,1.8h0c3.15.8,7.53,1.64,11.14,2.29s6.42,1.09,6.43,1.09l.11-.7-.55-.46h0a42.5,42.5,0,0,1-6.79,6.16,34.47,34.47,0,0,1-7.06,4,22,22,0,0,1-8.48,1.81,18,18,0,0,1-5.48-.84,28.19,28.19,0,0,1-6.24-2.77,13.8,13.8,0,0,1-5.1-5.12,11.94,11.94,0,0,1-1.39-5.81,23.16,23.16,0,0,1,1.4-7.32l-.67-.23-.23.67.23-.67-.67-.23a24.46,24.46,0,0,0-1.48,7.78,13.9,13.9,0,0,0,.66,4.36,13.25,13.25,0,0,0,4.11,6,25.39,25.39,0,0,0,9,4.65,19.37,19.37,0,0,0,5.91.91,23.63,23.63,0,0,0,9.16-2,39.16,39.16,0,0,0,10.26-6.59,40.7,40.7,0,0,0,4-4l.81-1-1.24-.2-.5-.08c-1.11-.18-4-.66-7.28-1.26s-7-1.33-9.66-2h0c-1.54-.4-3.74-1-6.17-1.79-3.65-1.12-7.81-2.46-11.05-3.52l-4-1.32-1.16-.38-.42-.14-.67-.23-.22.67Z"/></svg>